<svg xmlns="http://www.w3.org/2000/svg" fill="none" viewBox="0 0 160 24">
  <path fill="#fff" d="M23.1 23.84h-3.4a1.5 1.5 0 01-.98-.28 1.8 1.8 0 01-.53-.72l-1.77-4.87H6.67l-1.76 4.87a1.56 1.56 0 01-1.49 1H0L9.32.16h4.48zm-7.78-8.94L12.4 7a24.5 24.5 0 01-.9-2.8 31.5 31.5 0 01-.88 2.83L7.7 14.9zM44.32 23.84h-3.98a1.74 1.74 0 01-1.65-.89l-4.98-7.62a1.84 1.84 0 00-.6-.6 2.2 2.2 0 00-.98-.18h-1.9v9.25h-4.4V.16h7.21c1.4-.03 2.8.14 4.15.5 1.02.26 1.99.74 2.83 1.4.73.56 1.3 1.3 1.67 2.14a7.5 7.5 0 01-.8 6.97c-.46.6-1.02 1.1-1.64 1.53a8.6 8.6 0 01-2.22 1.03c.6.32 1.09.8 1.44 1.37zm-11.34-12.4c.74.01 1.47-.1 2.17-.31a4.24 4.24 0 001.52-.86c.4-.36.7-.8.9-1.3.2-.53.3-1.09.29-1.65a3.35 3.35 0 00-1.19-2.78 5.67 5.67 0 00-3.63-.97h-2.8v7.87zM63.3 3.77h-7.15v20.07h-4.4V3.77H44.6V.16h18.68zM71.17 23.73h-3.22V.25h14.47v2.6H71.13M99.59 21.06v2.67H86.27V.25h3.89v20.81zM124.17 12.02c.02 1.66-.26 3.3-.84 4.86a10.5 10.5 0 01-6.01 6.24 13.18 13.18 0 01-9.49 0c-1.42-.59-1.9-1.4-2.91-2.46-1.03-1.06-2.54-2.33-3.1-3.8a14.43 14.43 0 010-9.73 10.64 10.64 0 016.01-6.25 13.04 13.04 0 019.45 0 10.7 10.7 0 016.01 6.29c.59 1.55.89 3.19.88 4.85zm-3.26 0c.02-1.32-.18-2.64-.59-3.9a8.31 8.31 0 00-1.67-2.91 7.18 7.18 0 00-2.63-1.83 9.47 9.47 0 00-6.8 0c-1 .4-1.9 1.03-2.63 1.83a8.2 8.2 0 00-1.68 2.91 13.2 13.2 0 000 7.79 8.28 8.28 0 001.68 2.92c.73.79 1.63 1.41 2.63 1.82 2.2.82 4.6.82 6.8 0 1-.4 1.9-1.03 2.63-1.82a8.4 8.4 0 001.67-2.92c.41-1.26.6-2.57.59-3.9z"/>
  <path fill="#fff" d="M100.98 11.98c-.03-1.66.26-3.3.84-4.86a10.5 10.5 0 016.01-6.24 13.18 13.18 0 019.48 0c1.42.59 1.9 1.4 2.92 2.46s2.54 2.33 3.1 3.8a14.43 14.43 0 010 9.73 10.64 10.64 0 01-6.01 6.25 13.04 13.04 0 01-9.45 0 10.7 10.7 0 01-6.02-6.29 13.4 13.4 0 01-.87-4.85zm3.26 0c-.02 1.32.17 2.64.58 3.9a8.31 8.31 0 001.67 2.91c.73.8 1.63 1.43 2.63 1.83 2.2.85 4.62.85 6.81 0 1-.4 1.9-1.03 2.63-1.83a8.2 8.2 0 001.68-2.91 13.2 13.2 0 000-7.79 8.28 8.28 0 00-1.68-2.92 7.29 7.29 0 00-2.63-1.82 9.73 9.73 0 00-6.8 0c-1 .4-1.9 1.03-2.64 1.82a8.4 8.4 0 00-1.67 2.92c-.4 1.26-.6 2.57-.58 3.9zM160 .25l-7.32 23.48h-2.85l-5.95-17.9-.15-.56-.16-.62c-.05.21-.1.43-.16.62l-.16.56-5.98 17.9h-2.85L127.1.25h2.64c.25 0 .5.07.7.22.2.13.32.32.38.54l4.86 16.32c.08.29.16.61.23.97l.2 1.08.23-1.09c.08-.34.18-.66.28-.97L142.13 1c.08-.2.22-.38.4-.51.19-.16.44-.25.7-.25h.9c.25 0 .5.07.7.22.17.14.3.33.38.54l5.51 16.32c.1.28.19.6.26.91l.25 1.03c0-.36.11-.7.17-1.03.06-.33.14-.63.22-.91L156.48 1a1.12 1.12 0 011.07-.76z"/>
  <path fill="#fff" fill-rule="evenodd" d="M64.9 13.27l-.84-1.19a99.18 99.18 0 01-.84-1.19h.01l.02-.02a2.93 2.93 0 01.2-.13l.53-.26c.44-.2 1.06-.42 1.87-.56a13.3 13.3 0 016.86.79c2.41.87 3.99.64 4.9.3a3.7 3.7 0 001.22-.73h-.01v.01a98.7 98.7 0 002.24 1.87l-.01.01-.02.02-.04.05a3.57 3.57 0 01-.6.55c-.41.31-1 .68-1.78.97-1.6.58-3.89.78-6.89-.3a10.42 10.42 0 00-5.36-.67 5.18 5.18 0 00-1.48.5h.02v-.01z" clip-rule="evenodd"/>
</svg>
