<svg width="22" height="22" viewBox="0 0 22 22" fill="none" xmlns="http://www.w3.org/2000/svg">
<path d="M15.8413 1.00006H18.8413C19.3718 1.00006 19.8805 1.21078 20.2556 1.58585C20.6306 1.96092 20.8413 2.46963 20.8413 3.00006L20.8413 10.0001C20.8413 10.5305 20.6306 11.0392 20.2556 11.4143C19.8805 11.7893 19.3718 12.0001 18.8413 12.0001H15.8413M8.84134 14.0001V18.0001C8.84134 18.7957 9.15741 19.5588 9.72002 20.1214C10.2826 20.684 11.0457 21.0001 11.8413 21.0001L15.8413 12.0001L15.8413 1.00006L4.56134 1.00006C4.07901 0.994608 3.61096 1.16366 3.24343 1.47606C2.8759 1.78845 2.63366 2.22316 2.56134 2.70006L1.18134 11.7001C1.13783 11.9867 1.15716 12.2794 1.238 12.5578C1.31883 12.8362 1.45924 13.0938 1.64948 13.3125C1.83972 13.5313 2.07526 13.7061 2.33977 13.8248C2.60428 13.9436 2.89143 14.0033 3.18134 14.0001H8.84134Z" stroke="white" stroke-width="2" stroke-linecap="round" stroke-linejoin="round"/>
</svg>
