<svg width="22" height="22" viewBox="0 0 22 22" fill="none" xmlns="http://www.w3.org/2000/svg">
<path d="M6.15869 20.9999H3.15869C2.62826 20.9999 2.11955 20.7892 1.74448 20.4142C1.36941 20.0391 1.15869 19.5304 1.15869 18.9999V11.9999C1.15869 11.4695 1.36941 10.9608 1.74448 10.5857C2.11955 10.2107 2.62826 9.99994 3.15869 9.99994H6.15869M13.1587 7.99994V3.99994C13.1587 3.20429 12.8426 2.44123 12.28 1.87862C11.7174 1.31601 10.9543 0.999939 10.1587 0.999939L6.15869 9.99994V20.9999H17.4387C17.921 21.0054 18.3891 20.8363 18.7566 20.5239C19.1241 20.2115 19.3664 19.7768 19.4387 19.2999L20.8187 10.2999C20.8622 10.0133 20.8429 9.72062 20.762 9.44219C20.6812 9.16376 20.5408 8.90623 20.3505 8.68745C20.1603 8.46867 19.9248 8.29387 19.6603 8.17516C19.3958 8.05644 19.1086 7.99666 18.8187 7.99994H13.1587Z" stroke="white" stroke-width="2" stroke-linecap="round" stroke-linejoin="round"/>
</svg>
